HIERARCHY
ROOT Hips
{
	OFFSET 0.000000 0.000000 0.000000
	CHANNELS 6 Xposition Yposition Zposition Xrotation Yrotation Zrotation
	JOINT LeftUpLeg_virtual
	{
		OFFSET 0.000000 0.000000 0.000000
		CHANNELS 3 Xrotation Yrotation Zrotation
		JOINT LeftUpLeg
		{
			OFFSET 15.427100 -6.655098 0.678600
			CHANNELS 3 Xrotation Yrotation Zrotation
			JOINT LeftLeg
			{
				OFFSET 4.081073 -39.591068 13.024000
				CHANNELS 3 Xrotation Yrotation Zrotation
				JOINT LeftFoot
				{
					OFFSET -4.081074 -37.707932 -15.979700
					CHANNELS 3 Xrotation Yrotation Zrotation
					JOINT LeftToeBase
					{
						OFFSET 5.346399 -15.068900 20.645000
						CHANNELS 3 Xrotation Yrotation Zrotation
						JOINT LeftToe_End
						{
							OFFSET 2.754700 0.931300 11.300900
							CHANNELS 3 Xrotation Yrotation Zrotation
							End Site
							{
								OFFSET 0 0 0
							}
						}
					}
				}
			}
		}
	}
	JOINT RightUpLeg_virtual
	{
		OFFSET 0.000000 0.000000 0.000000
		CHANNELS 3 Xrotation Yrotation Zrotation
		JOINT RightUpLeg
		{
			OFFSET -15.569500 -6.655098 0.678600
			CHANNELS 3 Xrotation Yrotation Zrotation
			JOINT RightLeg
			{
				OFFSET -4.081825 -39.591045 13.023800
				CHANNELS 3 Xrotation Yrotation Zrotation
				JOINT RightFoot
				{
					OFFSET 4.081824 -37.707954 -15.979600
					CHANNELS 3 Xrotation Yrotation Zrotation
					JOINT RightToeBase
					{
						OFFSET -5.346400 -15.068900 20.645000
						CHANNELS 3 Xrotation Yrotation Zrotation
						JOINT RightToe_End
						{
							OFFSET -2.754700 0.931300 11.300900
							CHANNELS 3 Xrotation Yrotation Zrotation
							End Site
							{
								OFFSET 0 0 0
							}
						}
					}
				}
			}
		}
	}
	JOINT Spine_virtual
	{
		OFFSET 0.000000 0.000000 0.000000
		CHANNELS 3 Xrotation Yrotation Zrotation
		JOINT Spine
		{
			OFFSET -0.279200 12.230698 -2.892100
			CHANNELS 3 Xrotation Yrotation Zrotation
			JOINT Spine1
			{
				OFFSET -0.232667 10.192268 -1.242267
				CHANNELS 3 Xrotation Yrotation Zrotation
				JOINT Spine1_split
				{
					OFFSET -0.232667 10.192268 -1.242267
					CHANNELS 3 Xrotation Yrotation Zrotation
					JOINT Spine2
					{
						OFFSET -0.232667 10.192268 -1.242267
						CHANNELS 3 Xrotation Yrotation Zrotation
						JOINT Neck_virtual
						{
							OFFSET 0.000000 0.000000 0.000000
							CHANNELS 3 Xrotation Yrotation Zrotation
							JOINT Neck
							{
								OFFSET -0.418800 17.814194 8.416900
								CHANNELS 3 Xrotation Yrotation Zrotation
								JOINT Head
								{
									OFFSET 0.000000 7.031097 3.806800
									CHANNELS 3 Xrotation Yrotation Zrotation
									JOINT HeadTop_End
									{
										OFFSET 0.000000 24.646606 12.978600
										CHANNELS 3 Xrotation Yrotation Zrotation
										End Site
										{
											OFFSET 0 0 0
										}
									}
								}
							}
						}
						JOINT LeftShoulder_virtual
						{
							OFFSET 0.000000 0.000000 0.000000
							CHANNELS 3 Xrotation Yrotation Zrotation
							JOINT LeftShoulder
							{
								OFFSET 8.476499 7.247704 -3.868750
								CHANNELS 3 Xrotation Yrotation Zrotation
								JOINT LeftShoulder_split
								{
									OFFSET 8.476499 7.247704 -3.868750
									CHANNELS 3 Xrotation Yrotation Zrotation
									JOINT LeftArm
									{
										OFFSET 9.308998 -2.777710 0.208600
										CHANNELS 3 Xrotation Yrotation Zrotation
										JOINT LeftForeArm
										{
											OFFSET 29.972298 0.000000 0.000000
											CHANNELS 3 Xrotation Yrotation Zrotation
											JOINT LeftHand
											{
												OFFSET 26.026505 0.000000 0.000000
												CHANNELS 3 Xrotation Yrotation Zrotation
												End Site
												{
													OFFSET 0 0 0
												}
											}
										}
									}
								}
							}
						}
						JOINT RightShoulder_virtual
						{
							OFFSET 0.000000 0.000000 0.000000
							CHANNELS 3 Xrotation Yrotation Zrotation
							JOINT RightShoulder
							{
								OFFSET -7.570500 7.247704 -3.868750
								CHANNELS 3 Xrotation Yrotation Zrotation
								JOINT RightShoulder_split
								{
									OFFSET -7.570500 7.247704 -3.868750
									CHANNELS 3 Xrotation Yrotation Zrotation
									JOINT RightArm
									{
										OFFSET -9.308998 -2.777710 0.208500
										CHANNELS 3 Xrotation Yrotation Zrotation
										JOINT RightForeArm
										{
											OFFSET -29.972300 0.000000 0.000000
											CHANNELS 3 Xrotation Yrotation Zrotation
											JOINT RightHand
											{
												OFFSET -26.026505 0.000000 0.000000
												CHANNELS 3 Xrotation Yrotation Zrotation
												End Site
												{
													OFFSET 0 0 0
												}
											}
										}
									}
								}
							}
						}
					}
				}
			}
		}
	}
}
MOTION
Frames: 12
Frame Time: 0.03333333
-0.501981 88.634529 0.081837 0.000000 0.000000 0.000000 -2.428282 0.047194 -0.583283 -7.047518 2.766344 10.679333 21.909954 3.511593 1.061605 -14.019755 2.895243 -13.341701 2.081411 0.163345 -1.742375 0.000000 0.000000 0.000000 -2.138073 -0.184394 -0.592845 -3.842687 2.317932 -5.014230 23.470654 0.777707 1.117395 -13.543844 -1.305303 6.167718 3.499376 0.667596 1.100332 0.000000 0.000000 0.000000 -2.151943 -1.618591 -0.779520 0.894319 -0.869010 0.084955 -1.325425 -0.289470 0.604767 1.154389 0.267349 -0.041375 0.000000 0.000000 0.000000 -1.635463 0.007345 0.524095 -0.466251 0.516796 -0.988624 4.687296 -2.727893 2.906266 0.000000 0.000000 0.000000 -1.679585 0.161248 0.311146 1.422230 -10.764040 -10.126090 -2.592742 0.479258 -2.008584 20.346939 -21.863920 -65.815109 -1.122680 -19.607993 0.794679 0.000000 0.000000 0.000000 -1.270252 0.124199 0.467093 1.661201 5.357236 10.852955 -0.851983 3.207311 -1.812547 6.238234 23.711727 66.227966 0.566222 16.437584 0.652176 0.000000 0.000000 0.000000 
-0.264695 88.773415 0.206711 0.000000 0.000000 0.000000 -2.321137 0.013492 -0.597757 -6.991927 2.436735 10.699823 21.866478 3.665516 1.098112 -13.879143 3.075735 -13.077147 2.031952 0.204306 -1.778616 0.000000 0.000000 0.000000 -2.077782 -0.283126 -0.616569 -3.449800 2.302359 -5.069482 23.073585 0.741288 0.971561 -13.228943 -1.309034 5.722239 2.825373 0.597744 1.276616 0.000000 0.000000 0.000000 -1.954865 -1.627055 -0.882390 0.723153 -0.817061 0.169630 -1.247994 -0.302403 0.607898 1.228964 0.450143 0.043262 0.000000 0.000000 0.000000 -1.643896 -0.017592 0.542400 -0.543653 0.596186 -0.973024 4.607237 -2.745138 2.772928 0.000000 0.000000 0.000000 -1.657692 0.164847 0.313219 1.414752 -10.822632 -10.244018 -2.505291 0.436613 -1.965197 20.397429 -21.956007 -65.838161 -1.104112 -19.643365 0.684144 0.000000 0.000000 0.000000 -1.232377 0.123573 0.459326 1.665299 5.545294 10.947665 -0.795726 3.290469 -1.787075 6.385258 23.902320 66.066849 0.618668 16.382974 0.652018 0.000000 0.000000 0.000000 
-0.078190 88.909897 0.350365 0.000000 0.000000 0.000000 -2.322520 -0.168544 -0.623764 -7.042692 2.394540 10.697613 21.861979 3.996671 1.152655 -13.700367 3.145890 -12.695006 1.976887 0.274409 -1.744457 0.000000 0.000000 0.000000 -2.001675 -0.355434 -0.696082 -2.988360 2.288815 -5.141984 22.622353 0.761231 0.771826 -13.573907 -1.269674 4.954014 2.697712 0.586911 1.362294 0.000000 0.000000 0.000000 -1.728134 -1.699324 -1.032735 0.634904 -0.728886 0.342156 -1.130503 -0.302327 0.589541 1.260199 0.479945 0.058936 0.000000 0.000000 0.000000 -1.586017 -0.042094 0.532697 -0.565859 0.744292 -1.016600 4.325985 -2.730633 2.678309 0.000000 0.000000 0.000000 -1.596693 0.168125 0.290065 1.406348 -10.933599 -10.380060 -2.467512 0.571239 -1.874630 20.337913 -21.954581 -65.872557 -1.054781 -19.827274 0.578758 0.000000 0.000000 0.000000 -1.156685 0.109423 0.423036 1.699127 5.724628 11.044364 -0.686521 3.398845 -1.799485 6.654368 24.316151 65.654900 0.697534 16.482887 0.636262 0.000000 0.000000 0.000000 
0.087043 88.957962 0.412449 0.000000 0.000000 0.000000 -2.368880 -0.490787 -0.635387 -7.178241 2.663844 10.575310 21.893205 4.480018 1.218109 -13.600315 3.119809 -12.300277 1.918431 0.361170 -1.616163 0.000000 0.000000 0.000000 -1.863596 -0.458689 -0.758551 -2.750896 2.258705 -5.312880 22.371742 0.873132 0.677444 -14.193248 -1.218113 4.196899 2.891114 0.608356 1.327069 0.000000 0.000000 0.000000 -1.507242 -1.839375 -1.152151 0.636470 -0.625994 0.541219 -0.980763 -0.278811 0.551992 1.190230 0.423089 -0.051504 0.000000 0.000000 0.000000 -1.466770 -0.050600 0.500401 -0.541402 0.920868 -1.103531 3.831004 -2.687545 2.646076 0.000000 0.000000 0.000000 -1.506736 0.180758 0.246684 1.393049 -11.082486 -10.515916 -2.534907 0.740122 -1.797220 20.235581 -21.948272 -65.777775 -0.994508 -20.093131 0.465125 0.000000 0.000000 0.000000 -1.052126 0.093723 0.363084 1.767079 5.884392 11.108381 -0.524487 3.496041 -1.839898 6.933715 24.871605 65.086717 0.776489 16.693636 0.618523 0.000000 0.000000 0.000000 
0.246491 88.915825 0.416649 0.000000 0.000000 0.000000 -2.368504 -0.940007 -0.627700 -7.497460 3.145549 10.319187 22.016698 5.090245 1.296295 -13.649413 3.052652 -11.983582 1.887110 0.436372 -1.382773 0.000000 0.000000 0.000000 -1.621736 -0.660037 -0.788999 -2.846221 2.158692 -5.528992 22.177324 1.201569 0.717377 -14.683602 -1.210721 4.001480 2.377956 0.608847 1.124933 0.000000 0.000000 0.000000 -1.263029 -1.975229 -1.237733 0.716183 -0.535495 0.699700 -0.798480 -0.232486 0.499757 1.076264 0.297987 -0.146947 0.000000 0.000000 0.000000 -1.297793 -0.033410 0.455428 -0.502981 1.072317 -1.196488 3.131556 -2.616343 2.726674 0.000000 0.000000 0.000000 -1.378624 0.213724 0.194357 1.373869 -11.273169 -10.627427 -2.616874 0.807146 -1.918298 20.142062 -22.024915 -65.466830 -0.929873 -20.446999 0.342621 0.000000 0.000000 0.000000 -0.916797 0.093045 0.297250 1.861072 6.053085 11.132847 -0.344482 3.579524 -1.925075 7.106159 25.513624 64.490516 0.819706 16.986122 0.602231 0.000000 0.000000 0.000000 
0.398342 88.808350 0.365871 0.000000 0.000000 0.000000 -2.198849 -1.391474 -0.622178 -8.048892 3.659562 10.003391 22.303768 5.755323 1.383298 -13.810232 2.996373 -11.875326 1.835436 0.474897 -1.034844 0.000000 0.000000 0.000000 -1.234805 -1.016277 -0.810929 -3.263386 2.062539 -5.655504 21.953828 1.708610 0.850964 -14.993527 -1.264794 4.409832 1.209594 0.569262 0.817655 0.000000 0.000000 0.000000 -0.955825 -2.112040 -1.347472 0.840978 -0.483024 0.774107 -0.595218 -0.168563 0.436430 0.946853 0.169808 -0.086757 0.000000 0.000000 0.000000 -1.083507 0.014349 0.406753 -0.489743 1.168452 -1.267307 2.256061 -2.557290 2.957206 0.000000 0.000000 0.000000 -1.214513 0.267952 0.142807 1.344060 -11.509942 -10.692645 -2.597801 0.763531 -2.161808 20.019404 -22.157584 -64.931589 -0.858528 -20.866151 0.218049 0.000000 0.000000 0.000000 -0.751999 0.119407 0.235152 1.960596 6.285049 11.098751 -0.152259 3.651073 -2.013819 7.098119 26.225348 63.958130 0.810485 17.332334 0.594673 0.000000 0.000000 0.000000 
0.529644 88.694847 0.159496 0.000000 0.000000 0.000000 -1.812397 -1.974020 -0.691071 -8.837350 4.016260 9.822226 22.838833 6.462789 1.500753 -13.982844 3.044862 -12.053761 1.732516 0.463756 -0.609322 0.000000 0.000000 0.000000 -0.732697 -1.626750 -0.884857 -3.993688 1.954810 -5.614409 21.740998 2.221379 1.096137 -15.140315 -1.386307 5.003418 0.261008 0.504329 0.576183 0.000000 0.000000 0.000000 -0.521226 -2.261285 -1.514209 0.990211 -0.456328 0.735555 -0.362702 -0.096319 0.370836 0.887934 0.102099 -0.002753 0.000000 0.000000 0.000000 -0.823299 0.081971 0.353715 -0.534885 1.163200 -1.282379 1.258833 -2.592139 3.397456 0.000000 0.000000 0.000000 -1.007538 0.332182 0.095422 1.305743 -11.813047 -10.695295 -2.410216 0.626372 -2.365297 19.654329 -22.235594 -64.264027 -0.748885 -21.329571 0.122852 0.000000 0.000000 0.000000 -0.551705 0.165631 0.181815 2.051144 6.617191 11.028297 0.026199 3.635917 -2.054987 6.880197 27.023340 63.547834 0.755015 17.703290 0.583855 0.000000 0.000000 0.000000 
0.622858 88.619637 -0.294266 0.000000 0.000000 0.000000 -1.248576 -2.642337 -0.922800 -9.935190 4.025118 9.999375 23.697521 7.200614 1.631683 -14.135568 3.278028 -12.501788 1.572883 0.406602 -0.163693 0.000000 0.000000 0.000000 -0.180311 -2.457478 -1.123669 -5.117663 1.855264 -5.266713 21.641417 2.582359 1.431773 -15.233810 -1.550360 5.548786 0.241423 0.418144 0.549350 0.000000 0.000000 0.000000 0.076790 -2.586926 -1.811980 1.174174 -0.430179 0.598456 -0.101445 -0.031471 0.307040 0.928993 0.047371 0.052895 0.000000 0.000000 0.000000 -0.519951 0.155569 0.283814 -0.624656 1.056503 -1.183484 0.199123 -2.767394 4.082593 0.000000 0.000000 0.000000 -0.742975 0.400412 0.044485 1.272069 -12.196636 -10.624149 -2.146958 0.536776 -2.501755 18.863888 -22.043665 -63.586657 -0.614299 -21.843992 0.062496 0.000000 0.000000 0.000000 -0.297677 0.227503 0.130207 2.115398 7.076087 10.932601 0.179668 3.620275 -2.074010 6.488766 27.944450 63.211741 0.662319 18.176807 0.570352 0.000000 0.000000 0.000000 
0.655996 88.501526 -0.928680 0.000000 0.000000 0.000000 -0.548673 -3.483284 -1.403072 -11.334053 3.547486 10.720341 24.958708 7.865887 1.740411 -14.207513 3.692498 -13.276373 1.383092 0.318748 0.228430 0.000000 0.000000 0.000000 0.406910 -3.452427 -1.603965 -6.725991 1.885643 -4.480798 21.990757 2.795505 1.869557 -15.189815 -1.615191 6.120167 0.831218 0.327067 0.770091 0.000000 0.000000 0.000000 0.816341 -3.251216 -2.273048 1.415261 -0.394537 0.403109 0.196650 0.027649 0.232654 1.024562 -0.052857 0.104283 0.000000 0.000000 0.000000 -0.179697 0.225995 0.180210 -0.712298 0.858227 -0.933417 -0.847995 -3.099032 5.000839 0.000000 0.000000 0.000000 -0.420151 0.460722 -0.030564 1.252560 -12.662722 -10.501984 -1.933386 0.555579 -2.595047 17.707578 -21.486334 -62.960103 -0.473116 -22.511626 0.027870 0.000000 0.000000 0.000000 0.014541 0.290835 0.055163 2.153443 7.684835 10.838516 0.311250 3.616722 -2.090535 5.992996 28.970391 62.801725 0.565696 18.818489 0.557668 0.000000 0.000000 0.000000 
0.576052 88.249763 -1.665924 0.000000 0.000000 0.000000 0.240361 -4.519178 -2.148468 -12.979307 2.673977 12.031796 26.663870 8.429961 1.750969 -14.340493 4.293112 -14.243710 1.305001 0.217012 0.475756 0.000000 0.000000 0.000000 0.935647 -4.584351 -2.336295 -8.802246 2.093633 -3.200863 22.905758 2.960108 2.328748 -15.021242 -1.462271 6.969307 1.141244 0.245070 1.091823 0.000000 0.000000 0.000000 1.586325 -4.318303 -2.913724 1.746269 -0.357985 0.185288 0.530019 0.076544 0.116781 1.133800 -0.151508 0.111795 0.000000 0.000000 0.000000 0.186900 0.287667 0.030868 -0.729961 0.615552 -0.539157 -1.789157 -3.571783 6.099111 0.000000 0.000000 0.000000 -0.061599 0.505876 -0.146198 1.245828 -13.193396 -10.339329 -1.828389 0.542100 -2.617537 16.444292 -20.538941 -62.439226 -0.351213 -23.622144 0.016184 0.000000 0.000000 0.000000 0.366413 0.335970 -0.062544 2.177031 8.427645 10.767188 0.456873 3.647799 -2.156365 5.417680 29.992494 62.230755 0.496416 19.657136 0.538842 0.000000 0.000000 0.000000 
0.350875 87.710434 -2.405815 0.000000 0.000000 0.000000 1.026914 -5.666317 -3.095736 -14.774883 1.532068 13.849344 28.819741 8.912487 1.581631 -14.707083 5.088335 -15.164070 1.352312 0.123975 0.526622 0.000000 0.000000 0.000000 1.424355 -5.830943 -3.279423 -11.338870 2.418275 -1.470026 24.577700 3.130820 2.778477 -14.891542 -1.066534 8.297777 0.569641 0.194802 1.310573 0.000000 0.000000 0.000000 2.186218 -5.740134 -3.720130 2.210569 -0.333683 -0.025474 0.898891 0.108703 -0.051368 1.167775 -0.204510 0.110866 0.000000 0.000000 0.000000 0.564335 0.333328 -0.160648 -0.611477 0.398070 -0.045564 -2.547048 -4.075906 7.249575 0.000000 0.000000 0.000000 0.308756 0.528961 -0.303556 1.247155 -13.741110 -10.175044 -1.765612 0.366862 -2.526124 15.426544 -19.268845 -61.975552 -0.276416 -25.482198 0.008468 0.000000 0.000000 0.000000 0.724775 0.355156 -0.233232 2.196741 9.254523 10.711962 0.613484 3.633018 -2.186721 4.751795 30.839776 61.444170 0.472247 20.806874 0.532287 0.000000 0.000000 0.000000 
-0.020237 86.826111 -3.044762 0.000000 0.000000 0.000000 1.719761 -6.851750 -4.163804 -16.528335 0.213576 16.024660 31.332315 9.351174 1.216652 -15.280228 6.050637 -15.843462 1.446227 0.051067 0.359956 0.000000 0.000000 0.000000 1.807079 -7.043710 -4.342831 -14.178101 2.664312 0.396192 27.016094 3.394671 3.240297 -14.862524 -0.326089 10.111392 -0.948874 0.202028 1.272494 0.000000 0.000000 0.000000 2.493311 -7.324471 -4.620195 2.786518 -0.340721 -0.208550 1.278687 0.114162 -0.256244 1.195085 -0.304270 0.097646 0.000000 0.000000 0.000000 0.913951 0.347369 -0.375349 -0.321976 0.263515 0.475812 -3.035268 -4.521418 8.318896 0.000000 0.000000 0.000000 0.660688 0.523347 -0.488620 1.260050 -14.242967 -10.036952 -1.676852 -0.009608 -2.364443 14.858337 -17.847363 -61.477105 -0.261765 -28.241376 -0.018604 0.000000 0.000000 0.000000 1.060394 0.334820 -0.441623 2.216409 10.096754 10.691452 0.739901 3.476724 -2.133839 3.944045 31.222714 60.547926 0.489189 22.276228 0.527100 0.000000 0.000000 0.000000 
